<svg xmlns="http://www.w3.org/2000/svg" viewBox="0 0 128 40" fill="none">
  <path fill-rule="evenodd" clip-rule="evenodd" d="M22.5 3L33 33H27.5L25 26H13L10.5 33H5L15.5 3H22.5ZM19 8.5L14.5 22.5H23.5L19 8.5Z" fill="#18181b"/>
  <path d="M40 22.5C40 18.5 42.5 15.5 47 15.5C49 15.5 50.5 16 51.5 17L49.5 19.5C49 19 48 18.5 47 18.5C45 18.5 43.5 20 43.5 22.5C43.5 25 45 26.5 47 26.5C48 26.5 49 26 49.5 25.5L51.5 28C50.5 29 49 29.5 47 29.5C42.5 29.5 40 26.5 40 22.5Z" fill="#18181b"/>
  <path d="M57 16H53V13H64V16H60V29H57V16Z" fill="#18181b"/>
  <path d="M67 13H72.5C76 13 78 15 78 18C78 20.5 76.5 22 74.5 22.5L78.5 29H75L71.5 23H70V29H67V13ZM72 20.5C74 20.5 75 19.5 75 18C75 16.5 74 15.5 72 15.5H70V20.5H72Z" fill="#18181b"/>
  <path d="M81 22.5C81 17.5 84 13 89 13C94 13 97 17.5 97 22.5V23.5H84.5C85 26 86.5 27.5 89 27.5C90.5 27.5 92 27 93 26L95 28C93.5 29.5 91.5 30 89 30C84 30 81 26.5 81 22.5ZM84.5 21H93.5C93 18 91.5 16 89 16C86.5 16 85 18 84.5 21Z" fill="#18181b"/>
</svg>
